<svg xmlns="http://www.w3.org/2000/svg" xmlns:xlink="http://www.w3.org/1999/xlink" id="Capa_1" x="0" y="0" version="1.1" viewBox="0 0 512.001 512.001" xml:space="preserve" style="enable-background:new 0 0 512.001 512.001"><path style="fill:#5b5f63" d="M365.107,42.078H190.873c-14.925,0-27.042,11.981-27.042,26.904v79.732	c0,14.923,12.116,26.61,27.042,26.61h57.841l52.98,56.976c2.905,3.111,6.909,4.886,10.989,4.886c2.029,0,4.077-0.354,6.016-1.202	c5.84-2.554,9.434-8.712,8.967-15.068l-3.334-45.592h40.776c14.925,0,27.145-11.687,27.145-26.61V68.982	C392.252,54.059,380.033,42.078,365.107,42.078z"/><path style="fill:#7c8388" d="M273.48,42.078h-82.608c-14.925,0-27.042,11.981-27.042,26.904v79.732	c0,14.923,12.116,26.61,27.042,26.61h57.841l24.767,26.636V42.078z"/><path style="fill:#818f99" d="M288.419,0H114.185C99.26,0,86.689,12.414,86.689,27.337v79.732	c0,14.923,12.571,27.179,27.497,27.179h40.776l-3.334,45.336c-0.467,6.356,3.127,12.287,8.967,14.841	c1.94,0.848,3.987,1.245,6.016,1.245c4.08,0,8.084-1.611,10.989-4.722l52.98-56.699h57.84c14.926,0,26.691-12.256,26.691-27.179	V27.337C315.11,12.414,303.345,0,288.419,0z"/><path style="fill:#c5d3dd" d="M195.663,0h-81.478C99.26,0,86.689,12.414,86.689,27.337v79.732	c0,14.923,12.571,27.179,27.497,27.179h40.776l-3.334,45.336c-0.467,6.356,3.127,12.287,8.967,14.841	c1.94,0.848,3.987,1.245,6.016,1.245c4.08,0,8.084-1.611,10.989-4.722l18.063-19.332V0z"/><path style="fill:#7c8388" d="M122.231,459.85H92.072c-30.774,0-55.852-24.673-55.852-55.432v-96.524	c0-8.299-6.728-15.028-15.028-15.028s-15.028,6.728-15.028,15.028v96.524c0,47.331,38.561,85.488,85.908,85.488h30.158	c8.299,0,15.028-6.728,15.028-15.028S130.53,459.85,122.231,459.85z"/><path style="fill:#ffbfab" d="M102.582,279.534H94.48c-13.018,0-23.57-10.553-23.57-23.57v-17.412	c0-13.018,10.553-23.57,23.57-23.57h8.101c13.018,0,23.571,10.553,23.571,23.57v17.412	C126.152,268.981,115.6,279.534,102.582,279.534z"/><path style="fill:#ff637b" d="M214.049,407.719c0-12.909-10.468-23.373-23.382-23.373h-57.091v-66.243	c0-19.347-15.69-35.032-35.045-35.032l0,0c-19.355,0-35.045,15.684-35.045,35.032v77.958c0,19.347,15.69,35.032,35.045,35.032l0,0	c0.146,0,0.29-0.009,0.435-0.011c0.145,0.003,0.289,0.011,0.435,0.011h67.883v57.535c0,12.909,10.469,23.373,23.382,23.373l0,0	c12.913,0,23.382-10.464,23.382-23.373v-79.169c0-0.292-0.011-0.58-0.022-0.869C214.037,408.3,214.049,408.011,214.049,407.719	L214.049,407.719z"/><path style="fill:#383838" d="M389.771,459.85h30.158c30.774,0,55.852-24.673,55.852-55.432v-96.524	c0-8.299,6.728-15.028,15.028-15.028s15.028,6.728,15.028,15.028v96.524c0,47.331-38.561,85.488-85.908,85.488h-30.158	c-8.299,0-15.028-6.728-15.028-15.028S381.472,459.85,389.771,459.85z"/><path style="fill:#ffa17a" d="M409.42,279.534h8.102c13.018,0,23.57-10.553,23.57-23.57v-17.412c0-13.018-10.553-23.57-23.57-23.57	h-8.101c-13.018,0-23.57,10.553-23.57,23.57v17.412C385.85,268.981,396.402,279.534,409.42,279.534z"/><path style="fill:#007a9f" d="M297.953,407.719c0-12.909,10.468-23.373,23.382-23.373h57.091v-66.243	c0-19.347,15.69-35.032,35.045-35.032l0,0c19.355,0,35.045,15.684,35.045,35.032v77.958c0,19.347-15.69,35.032-35.045,35.032l0,0	c-0.146,0-0.29-0.009-0.435-0.011c-0.145,0.003-0.289,0.011-0.435,0.011h-67.883v57.535c0,12.909-10.469,23.373-23.382,23.373l0,0	c-12.913,0-23.382-10.464-23.382-23.373v-79.169c0-0.292,0.011-0.58,0.022-0.869C297.965,408.3,297.953,408.011,297.953,407.719	L297.953,407.719z"/></svg>