<svg height="506pt" viewBox="0 -5 506.184 506" width="506pt" xmlns="http://www.w3.org/2000/svg"><path d="m428.847656 264.09375h-328v224h344v-194zm0 0" fill="#91e8ed"/><path d="m428.847656 264.09375 56-72h-192v72zm0 0" fill="#00c3ff"/><path d="m204.847656 264.09375-72-72h-112l80 72zm0 0" fill="#ffea00"/><path d="m420.847656 104.09375c17.671875 0 32-14.328125 32-32 0-17.675781-14.328125-32-32-32h-300l-76 28v8l76 28zm0 0" fill="#ff8a80"/><path d="m188.847656 264.09375v-96l-32-40v-24h32v-80c0-8.839844 7.164063-16 16-16h64c8.835938 0 16 7.160156 16 16h16c8.835938 0 16 7.160156 16 16v80l-24 40v104zm0 0" fill="#ffdecf"/><path d="m364.847656 40.09375h32v64h-32zm0 0" fill="#fff"/><path d="m44.847656 68.09375v8l48 17.6875v-43.378906zm0 0" fill="#50575e"/><path d="m120.847656 40.09375-28 10.308594v43.378906l28 10.3125h4v-64zm0 0" fill="#ffdecf"/><path d="m100.847656 264.09375-72 96h224l72-96zm0 0" fill="#00c3ff"/><path d="m428.847656 264.09375 64 120h-104l-64-120zm0 0" fill="#ffea00"/><path d="m252.847656 448.09375h48v16h-48zm0 0" fill="#fff"/><path d="m252.847656 416.09375h48v16h-48zm0 0" fill="#fff"/><path d="m438.351562 264.890625 62.855469-80.796875h-200.359375v-21.785156l24-40v-10.214844h96c22.089844 0 40-17.910156 40-40 0-22.09375-17.910156-40-40-40h-97.472656c-3.378906-9.554688-12.394531-15.960938-22.527344-16h-9.367187c-3.402344-9.582031-12.464844-15.988281-22.632813-16h-64c-13.253906 0-24 10.742188-24 24v8h-61.433594l-82.566406 30.398438v19.199218l82.566406 30.402344h29.433594v18.804688l32 40v57.882812l-44.6875-44.6875h-136.160156l90.054688 81.054688-77.207032 102.945312h80v128h360v-104h53.335938zm-33.503906-216.796875h16c13.253906 0 24 10.742188 24 24 0 13.253906-10.746094 24-24 24h-16zm-32 0h16v48h-16zm-48 0h32v48h-32zm-240 34.207031-27.71875-10.207031 27.71875-10.210938zm32 11.792969-16.289062-6h.289062v-32h-.289062l16.289062-6zm16 2v-48h48v48zm32 29.191406v-13.191406h32v-88c0-4.421875 3.582032-8 8-8h8v32h16v-32h16v32h16v-32h8c4.417969 0 8 3.578125 8 8v32h16v-24h8c4.417969 0 8 3.578125 8 8v77.78125l-24 40v98.21875h-88v-90.808594zm-123.160156 74.808594h87.847656l51.3125 51.308594v4.691406h-76.925781zm3.160156 152 60-80h204l-60 80zm272 128h-208v-112h148l60-80zm-16-224v-56h167.640625l-43.550781 56zm136 224h-104v-184l51.199219 96h52.800781zm-43.199218-104-55.464844-104h85.863281l55.472656 104zm0 0"/></svg>